<?xml version="1.0" encoding="iso-8859-1"?>
<!-- Generator: Adobe Illustrator 19.0.0, SVG Export Plug-In . SVG Version: 6.00 Build 0)  -->
<svg version="1.1" id="Layer_1" xmlns="http://www.w3.org/2000/svg" xmlns:xlink="http://www.w3.org/1999/xlink" x="0px" y="0px"
	 viewBox="0 0 297.001 297.001" style="enable-background:new 0 0 297.001 297.001;" xml:space="preserve">
<g>
	<g>
		<g>
			<circle style="fill:#3C5768;" cx="148.501" cy="148.5" r="148.5"/>
		</g>
	</g>
	<path style="fill:#2C3E50;" d="M204.474,56.791L88.667,241.259l55.681,55.681c1.38,0.038,2.764,0.061,4.153,0.061
		c81.744,0,148.054-66.05,148.49-147.692L204.474,56.791z"/>
	<g>
		<path style="fill:#D0D5D9;" d="M103.667,247.5h89.666c11.69,0,21.167-9.477,21.167-21.167V103.667
			c0-11.69-9.477-21.167-21.167-21.167h-89.666c-11.69,0-21.167,9.477-21.167,21.167v122.666
			C82.501,238.023,91.977,247.5,103.667,247.5z"/>
	</g>
	<g>
		<path style="fill:#B3B8BC;" d="M193.333,82.5h-44.499v165h44.499c11.69,0,21.167-9.477,21.167-21.167V103.667
			C214.501,91.977,205.023,82.5,193.333,82.5z"/>
	</g>
	<g>
		<path style="fill:#9FB0BC;" d="M171.501,159.5c-29.667,6.922-59.334,6.011-89-0.779v67.613c0,11.69,9.477,21.167,21.167,21.167
			h89.666c11.69,0,21.167-9.477,21.167-21.167v-80.43C199.896,147.802,186.474,155.977,171.501,159.5z"/>
	</g>
	<g>
		<path style="fill:#759AAC;" d="M96.506,84h103.99c3.317,0,6.005-2.689,6.005-6.005v-16.99c0-3.317-2.689-6.005-6.005-6.005H96.506
			c-3.317,0-6.005,2.689-6.005,6.005v16.99C90.501,81.311,93.189,84,96.506,84z"/>
	</g>
	<g>
		<path style="fill:#7E8F99;" d="M171.501,159.5c-7.555,1.763-15.111,3.012-22.666,3.791V247.5h44.499
			c11.69,0,21.167-9.477,21.167-21.167v-80.43C199.896,147.802,186.474,155.977,171.501,159.5z"/>
	</g>
	<g>
		<path style="fill:#628796;" d="M200.495,55h-51.661v29h51.661c3.317,0,6.005-2.689,6.005-6.005v-16.99
			C206.501,57.689,203.812,55,200.495,55z"/>
	</g>
	<g>
		<path style="fill:#5A8463;" d="M146.752,232.845c-8.531-27.31-2.463-57.217,16.039-79.044c5.224-6.173,13.297-6.871,16.665-2.532
			l0,0c3.402,4.349,2.31,10.935-1.441,15.421c-14.095,16.628-18.719,39.412-12.219,60.218c1.706,5.593,0.145,12.084-4.684,14.763
			l0,0C156.318,244.354,149.157,240.566,146.752,232.845z"/>
	</g>
	<g>
		<path style="fill:#467251;" d="M117.478,153.186c19.776,20.682,27.624,50.175,20.743,77.949
			c-1.938,7.852-8.861,12.062-13.807,9.671l0,0c-4.98-2.386-6.927-8.772-5.559-14.458c5.242-21.159-0.737-43.628-15.803-59.384
			c-4.013-4.254-5.498-10.763-2.362-15.308l0,0C103.793,147.123,111.893,147.336,117.478,153.186z"/>
	</g>
	<g>
		<path style="fill:#5A8463;" d="M141.81,142.712c19.776,20.682,27.624,50.175,20.743,77.949
			c-1.938,7.852-8.861,12.062-13.807,9.671l0,0c-4.98-2.386-6.927-8.772-5.559-14.458c5.242-21.159-0.737-43.628-15.803-59.384
			c-4.013-4.254-5.498-10.763-2.362-15.308l0,0C128.126,136.649,136.225,136.862,141.81,142.712z"/>
	</g>
	<g>
		<path style="fill:#345F41;" d="M209.545,144.017c9.097,32.974,0.648,68.465-22.332,93.803c-6.489,7.167-16.161,7.676-20.012,2.358
			l0,0c-3.89-5.332-2.321-13.159,2.34-18.368c17.507-19.303,23.944-46.341,17.013-71.462c-1.813-6.751,0.312-14.444,6.188-17.452
			l0,0C198.577,129.882,206.982,134.695,209.545,144.017z"/>
	</g>
	<g>
		<path style="fill:#467251;" d="M171.911,230.848c-20.042-27.717-24.523-63.924-11.842-95.691
			c3.577-8.982,12.461-12.838,17.927-9.2l0,0c5.508,3.637,6.771,11.518,4.224,18.028c-9.661,24.201-6.247,51.785,9.022,72.901
			c4.058,5.692,4.754,13.643,0.298,18.514l0,0C187.126,240.261,177.568,238.687,171.911,230.848z"/>
	</g>
	<g>
		<path style="fill:#345F41;" d="M113.217,131.208c16.572,29.923,16.677,66.407,0.276,96.424
			c-4.628,8.488-13.912,11.25-18.901,6.982l0,0c-5.032-4.272-5.34-12.248-2.03-18.405c12.495-22.868,12.415-50.663-0.21-73.459
			c-3.345-6.138-3.082-14.115,1.925-18.416l0,0C99.241,120.037,108.54,122.746,113.217,131.208z"/>
	</g>
	<g>
		<path style="fill:#467251;" d="M137.954,227.448c-16.767-23.188-20.515-53.476-9.906-80.051
			c2.992-7.514,10.425-10.739,14.998-7.695l0,0c4.608,3.043,5.664,9.636,3.533,15.081c-8.082,20.245-5.227,43.32,7.547,60.986
			c3.394,4.762,3.977,11.413,0.25,15.488l0,0C150.683,235.323,142.688,234.006,137.954,227.448z"/>
	</g>
</g>
<g>
</g>
<g>
</g>
<g>
</g>
<g>
</g>
<g>
</g>
<g>
</g>
<g>
</g>
<g>
</g>
<g>
</g>
<g>
</g>
<g>
</g>
<g>
</g>
<g>
</g>
<g>
</g>
<g>
</g>
</svg>
